<svg xmlns="http://www.w3.org/2000/svg" width="36" height="36" fill="none" viewBox="0 0 36 36">
    <circle cx="17.834" cy="18.142" r="17.639" fill="#E29101" fill-opacity=".06"/>
    <path fill="url(#paint0_linear)" d="M23.215 13.688h-2.678l.783-1.53c.729.008 1.34-.625 1.34-1.417 0-.781-.598-1.417-1.331-1.417-1.18 0-1.775 1.527-.942 2.417l-.996 1.947h-3.114l-.996-1.947c.832-.89.239-2.417-.942-2.417-.734 0-1.33.636-1.33 1.417 0 .782.596 1.417 1.33 1.417.014 0-.05-.117.792 1.53h-2.678c-.924 0-1.675.8-1.675 1.784v6.823c0 .983.752 1.784 1.675 1.784h6.757v.956c0 .972 1.133 1.412 1.724.682l1.325-1.638h.956c.924 0 1.675-.8 1.675-1.784v-6.823c0-.984-.751-1.784-1.675-1.784zm-3.825 2.363h1.414c.278 0 .503.24.503.536 0 .296-.225.536-.503.536H19.39c-.278 0-.503-.24-.503-.536 0-.296.225-.536.503-.536zm-4.526 0h1.414c.278 0 .504.24.504.536 0 .296-.226.536-.504.536h-1.414c-.278 0-.503-.24-.503-.536 0-.296.225-.536.503-.536zm7.531 5.091c0 .296-.225.536-.503.536h-8.116c-.278 0-.503-.24-.503-.536v-2.21c0-.295.225-.535.503-.535h8.116c.278 0 .503.24.503.536v2.21z"/>
    <defs>
        <linearGradient id="paint0_linear" x1="23.053" x2="10.21" y1="11.753" y2="17.968" gradientUnits="userSpaceOnUse">
            <stop stop-color="#A75906"/>
            <stop offset="1" stop-color="#E29101"/>
        </linearGradient>
    </defs>
</svg>
