<svg xmlns="http://www.w3.org/2000/svg" width="46" height="37" fill="none" viewBox="0 0 46 37">
    <rect width="44.098" height="35.278" x=".707" y="1.227" stroke="url(#paint0_linear)" stroke-width=".882" rx="5.292"/>
    <g clip-path="url(#clip0)">
        <path fill="url(#paint1_linear)" d="M24.268 17.607c-.14 0-.252-.113-.252-.252V11.81h-2.52v5.544c0 .139-.113.252-.252.252H15.7v2.52h5.544c.14 0 .252.113.252.252v5.543h2.52V20.38c0-.14.113-.252.252-.252h5.543v-2.52h-5.543z"/>
    </g>
    <defs>
        <linearGradient id="paint0_linear" x1="39.064" x2="6.393" y1="6.341" y2="29.813" gradientUnits="userSpaceOnUse">
            <stop stop-color="#A75906"/>
            <stop offset="1" stop-color="#E29101"/>
        </linearGradient>
        <linearGradient id="paint1_linear" x1="27.974" x2="16.06" y1="13.857" y2="20.705" gradientUnits="userSpaceOnUse">
            <stop stop-color="#A75906"/>
            <stop offset="1" stop-color="#E29101"/>
        </linearGradient>
        <clipPath id="clip0">
            <path fill="#fff" d="M0 0H14.111V14.111H0z" transform="translate(15.7 11.811)"/>
        </clipPath>
    </defs>
</svg>
