<svg xmlns="http://www.w3.org/2000/svg" width="36" height="36" fill="none" viewBox="0 0 36 36">
    <circle cx="17.834" cy="17.866" r="17.639" fill="#E29101" fill-opacity=".06"/>
    <g clip-path="url(#clip0)">
        <path fill="url(#paint0_linear)" d="M14.498 16.66l-1.13 2.563c-.027.063-.097.104-.174.104h-.578c-.076 0-.146-.041-.173-.105L11.907 18c-.053-.12-.1-.236-.145-.35-.05.126-.1.243-.151.356l-.565 1.22c-.029.063-.098.102-.173.102h-.578c-.08 0-.149-.043-.176-.107l-1.056-2.564c-.02-.05-.012-.106.023-.15s.091-.07.152-.07h.651c.082 0 .154.047.179.115l.463 1.303c.04.11.075.213.108.312l.132-.314.571-1.31c.028-.064.097-.106.174-.106h.537c.078 0 .147.043.175.107l.542 1.282c.049.115.092.223.132.325.033-.096.072-.2.116-.316l.5-1.287c.026-.067.097-.111.176-.111h.629c.061 0 .118.026.154.07.035.046.042.102.02.153zm6.053 0l-1.13 2.563c-.027.063-.097.104-.173.104h-.58c-.076 0-.145-.041-.173-.105L17.96 18c-.053-.12-.1-.236-.146-.35-.05.126-.1.243-.15.356l-.566 1.22c-.028.063-.097.102-.173.102h-.579c-.078 0-.148-.043-.175-.107l-1.057-2.564c-.02-.05-.012-.106.023-.15.036-.043.093-.07.153-.07h.65c.083 0 .155.047.18.115l.462 1.303c.04.11.075.213.11.312l.13-.314.572-1.31c.027-.064.096-.106.174-.106h.537c.078 0 .148.043.175.107l.542 1.282c.048.115.091.223.13.325.035-.096.073-.2.118-.316l.5-1.287c.025-.067.097-.111.177-.111h.628c.062 0 .12.026.154.07.036.046.044.102.022.153zm6.052 0l-1.128 2.563c-.029.063-.098.104-.175.104h-.579c-.076 0-.146-.041-.173-.105L24.013 18c-.053-.12-.1-.236-.146-.35-.05.126-.1.243-.152.356l-.565 1.22c-.028.063-.097.102-.173.102H22.4c-.08 0-.149-.043-.176-.107l-1.056-2.564c-.02-.05-.013-.106.022-.15.035-.044.092-.07.153-.07h.652c.082 0 .154.047.177.115l.464 1.303.109.312.13-.314.572-1.31c.028-.064.097-.106.174-.106h.537c.078 0 .148.043.175.107l.541 1.282c.05.115.093.223.133.325.034-.096.072-.2.116-.316l.501-1.287c.025-.067.096-.111.177-.111h.628c.062 0 .12.026.154.07.034.046.043.102.02.153z"/>
        <path fill="url(#paint1_linear)" d="M10.852 15.152c.192-.487.432-.95.717-1.382.042.008.081.025.125.025h1.276c-.135.43-.241.888-.333 1.357h1.394c.106-.474.228-.934.382-1.357h6.775c.154.423.276.883.38 1.357h1.395c-.091-.469-.197-.927-.332-1.357h1.275c.044 0 .084-.017.126-.025.284.431.525.895.717 1.382h1.439c-1.148-3.539-4.472-6.106-8.388-6.106-3.916 0-7.24 2.567-8.388 6.106h1.44zm12.054-2.714H22.1c-.175-.368-.368-.712-.577-1.03.502.29.965.636 1.383 1.03zM17.8 10.403c1.052 0 2.024.783 2.756 2.035h-5.512c.732-1.252 1.704-2.035 2.756-2.035zm-3.724 1.005c-.209.318-.401.662-.576 1.03h-.806c.419-.394.882-.74 1.382-1.03z"/>
        <path fill="url(#paint2_linear)" d="M24.75 20.58c-.192.487-.433.949-.717 1.381-.043-.008-.082-.025-.126-.025h-1.276c.135-.43.24-.888.332-1.357H21.57c-.104.474-.227.934-.381 1.357h-6.774c-.154-.423-.276-.883-.381-1.357h-1.394c.092.469.197.927.332 1.357h-1.276c-.044 0-.083.017-.125.025-.284-.432-.525-.894-.717-1.382h-1.44c1.148 3.539 4.472 6.106 8.388 6.106 3.916 0 7.24-2.567 8.388-6.106h-1.44zm-12.055 2.713h.806c.175.368.368.713.577 1.03-.501-.29-.964-.636-1.383-1.03zm5.106 2.035c-1.052 0-2.024-.783-2.756-2.035h5.511c-.731 1.252-1.703 2.035-2.755 2.035zm3.723-1.005c.21-.317.403-.662.578-1.03h.806c-.42.394-.882.74-1.384 1.03z"/>
    </g>
    <defs>
        <linearGradient id="paint0_linear" x1="24.328" x2="22.832" y1="16.855" y2="22.077" gradientUnits="userSpaceOnUse">
            <stop stop-color="#A75906"/>
            <stop offset="1" stop-color="#E29101"/>
        </linearGradient>
        <linearGradient id="paint1_linear" x1="24.004" x2="18.61" y1="9.931" y2="18.448" gradientUnits="userSpaceOnUse">
            <stop stop-color="#A75906"/>
            <stop offset="1" stop-color="#E29101"/>
        </linearGradient>
        <linearGradient id="paint2_linear" x1="24.005" x2="18.611" y1="21.464" y2="29.982" gradientUnits="userSpaceOnUse">
            <stop stop-color="#A75906"/>
            <stop offset="1" stop-color="#E29101"/>
        </linearGradient>
        <clipPath id="clip0">
            <path fill="#fff" d="M0 0H17.639V17.639H0z" transform="translate(9.016 9.046)"/>
        </clipPath>
    </defs>
</svg>
