<svg xmlns="http://www.w3.org/2000/svg" width="107.046" height="24.664" viewBox="0 0 107.046 24.664"><defs><style>.a,.b{fill:#fff;}.a{font-size:16px;font-family:Roboto-Bold, Roboto;font-weight:700;}</style></defs><text class="a" transform="translate(33.046 17.832)"><tspan x="0" y="0">Marketing</tspan></text><g transform="matrix(0.875, 0.485, -0.485, 0.875, 8.621, 0)"><path class="b" d="M3.523,13.026l1.848,3.2A1.468,1.468,0,1,0,7.914,14.76l-1.1-1.907.954-.551a.367.367,0,0,0,.134-.5l-.477-.827,7.03-1.379a1.1,1.1,0,0,0,.893-1.65l-1.22-2.113.78-1.181a.367.367,0,0,0,.012-.386l-.734-1.271a.368.368,0,0,0-.34-.183L12.432,2.9,11.078.551a1.092,1.092,0,0,0-.94-.55h-.014A1.091,1.091,0,0,0,9.2.508L4.4,6.616l-3.117,1.8a2.569,2.569,0,0,0,2.238,4.611Zm3.756,2.1a.734.734,0,0,1-1.272.734L4.172,12.682l1.271-.734,1.835,3.179Zm-.833-2.911-.367-.636.636-.367.367.636Zm7.215-8.659.507.879-.452.685-.874-1.514ZM9.811.91a.367.367,0,0,1,.631.007l4.269,7.395a.367.367,0,0,1-.309.55,1.347,1.347,0,0,0-.2.034L9.685,1.075C9.78.953,9.792.941,9.811.91ZM9.2,1.7,13.44,9.046,7.036,10.3,5.089,6.93ZM.98,11.558a1.834,1.834,0,0,1,.672-2.507L4.513,7.4l1.835,3.179L3.487,12.23A1.837,1.837,0,0,1,.98,11.558Zm0,0" transform="translate(0 0.821)"/><path class="b" d="M2.234.046.189,1.185a.367.367,0,0,0,.357.641L2.591.688A.367.367,0,0,0,2.234.046Zm0,0" transform="translate(16.013 1.559)"/><path class="b" d="M1.88.393.462.013a.367.367,0,1,0-.19.709l1.418.38A.367.367,0,1,0,1.88.393Zm0,0" transform="translate(16.152 5.015)"/><path class="b" d="M.393.272.013,1.69a.367.367,0,0,0,.709.19L1.1.462A.367.367,0,1,0,.393.272Zm0,0" transform="translate(14.076 0)"/></g></svg>