<svg xmlns="http://www.w3.org/2000/svg" xmlns:xlink="http://www.w3.org/1999/xlink" version="1.1" x="0px" y="0px" viewBox="0 0 100 125" enable-background="new 0 0 100 100" xml:space="preserve"><g><g><g><g><path fill="#fff" d="M77.8,60.6c-0.2,0.2-0.3,0.3-0.5,0.5c-2.6,2.6-5.1,5.1-7.7,7.7c-1.6,1.6-4.1-0.9-2.5-2.5      c1.7-1.7,3.4-3.4,5.1-5c-5.3,0-10.7,0-16.1,0c-0.3,1.6-0.5,3.4-0.5,5.3c0,1.6,0.5,2.9,1.6,4.1c2.3,2.2,7.9,3.2,13.4,3.2      c5.6,0,11.2-1.1,13.5-3.2c1.1-1.2,1.7-2.5,1.7-4.1c0-13.3-8.8-21.4-15.1-21.4c-4.8,0-10.9,4.6-13.6,12.6c5.2,0,10.4,0,15.5,0      c-1.7-1.6-3.3-3.3-4.9-4.9c-1.6-1.6,0.9-4.1,2.5-2.5c2.6,2.6,5.2,5.2,7.8,7.8c0.4,0.4,0.5,0.8,0.5,1.2h0c0,0.2,0,0.5-0.2,0.7      l0,0l0,0.1C78,60.4,77.9,60.5,77.8,60.6z M89.5,66.6c0,2.7-1,5-2.9,6.8c-3.2,3.1-9.6,4.5-16,4.5c-6.4,0-12.8-1.3-15.9-4.5      c-1.8-1.8-2.9-4.1-2.9-6.8c0-1.7,0.2-3.5,0.5-5.3c-1.8,0-3.6,0-5.5,0c0.3,1.8,0.5,3.5,0.5,5.3c0,2.7-1,5-2.9,6.8      c-3.2,3.1-9.6,4.5-16,4.5s-12.8-1.3-15.9-4.5c-1.8-1.8-2.9-4.1-2.9-6.8c0-5.6,1.8-11.7,4.9-16.4c1.5-2.3,3.2-4.2,5.2-5.6      c0.3-0.4,0.5-0.7,0.5-1.2c0.1-0.7-0.1-1.3-0.5-1.8c-1.8-2-3.1-4.8-3.1-7.9c0-6.4,5.2-11.7,11.7-11.7h0.1c0.1,0,0.1,0,0.1,0      c6.5,0,11.7,5.3,11.7,11.7c0,3.1-1.2,5.9-3.1,7.9c-0.4,0.5-0.6,1.2-0.5,1.8c0,0.5,0.2,0.9,0.5,1.2c2,1.4,3.7,3.2,5.2,5.6      c1.5,2.3,2.7,4.9,3.5,7.7c2.4,0,4.8,0,7.2,0c0.8-2.7,2-5.4,3.5-7.7c1.5-2.3,3.2-4.2,5.2-5.6c0.3-0.4,0.5-0.7,0.5-1.2      c0.1-0.7-0.1-1.3-0.5-1.8c-1.8-2-3.1-4.8-3.1-7.9c0-6.4,5.2-11.7,11.7-11.7h0.1c0.1,0,0.1,0,0.1,0c6.5,0,11.7,5.3,11.7,11.7      c0,3.1-1.2,5.9-3.1,7.9c-0.4,0.5-0.6,1.2-0.5,1.8c0,0.5,0.2,0.9,0.5,1.2c2,1.4,3.7,3.2,5.2,5.6C87.6,54.8,89.5,61,89.5,66.6z       M78.8,33.5c0-4.5-3.6-8.1-8.2-8.1c-4.5,0-8.1,3.7-8.1,8.1s3.6,8.1,8.1,8.1C75.1,41.6,78.8,38,78.8,33.5z M43.6,66.6      c0-1.9-0.2-3.6-0.5-5.3c-5.5,0-11,0-16.3,0c1.6,1.6,3.2,3.2,4.8,4.8c1.6,1.6-0.9,4.1-2.5,2.5c-2.6-2.6-5.1-5.1-7.7-7.7      c0,0-0.1-0.1-0.1-0.1c0,0,0,0,0,0c-0.1-0.2-0.2-0.3-0.3-0.5c0,0,0,0,0,0c-0.1-0.4-0.1-0.8,0-1.2c0,0,0,0,0,0      c0.1-0.2,0.2-0.4,0.3-0.5c0,0,0,0,0-0.1c0,0,0.1-0.1,0.1-0.1h0c2.7-2.7,5.4-5.4,8-8c1.6-1.6,4.1,0.9,2.5,2.5      c-1.7,1.7-3.4,3.5-5.2,5.2c5,0,10.2,0,15.4,0c-2.7-8-8.9-12.6-13.7-12.6c-6.3,0-15.1,8.1-15.1,21.4c0,1.6,0.6,2.9,1.7,4.1      c2.3,2.2,7.9,3.2,13.4,3.2c5.6,0,11.1-1.1,13.5-3.2C43.1,69.5,43.6,68.2,43.6,66.6z M36.7,33.5c0-4.5-3.6-8.1-8.1-8.1      s-8.1,3.7-8.1,8.1s3.6,8.1,8.1,8.1S36.7,38,36.7,33.5z"/></g></g></g></g></svg>